<svg xml:space="preserve" style="max-height: 500px" viewBox="0 0 515.9276 513.9628482972137" y="0px" x="0px" xmlns:xlink="http://www.w3.org/1999/xlink" xmlns="http://www.w3.org/2000/svg" id="Layer_1" version="1.1" width="515.9276" height="513.9628482972137">
<style type="text/css">
	.st0{fill:#FFFFFF;}
</style>
<path d="M257.4,17.4c32.1,0,63.3,6.3,92.6,18.7c28.3,12,53.8,29.2,75.7,51c21.9,21.9,39,47.3,51,75.7  c12.4,29.3,18.7,60.5,18.7,92.6s-6.3,63.3-18.7,92.6c-12,28.3-29.2,53.8-51,75.7c-21.9,21.9-47.3,39-75.7,51  c-29.3,12.4-60.5,18.7-92.6,18.7s-63.3-6.3-92.6-18.7c-28.3-12-53.8-29.2-75.7-51c-21.9-21.9-39-47.3-51-75.7  c-12.4-29.3-18.7-60.5-18.7-92.6s6.3-63.3,18.7-92.6c12-28.3,29.2-53.8,51-75.7s47.3-39,75.7-51C194.1,23.7,225.3,17.4,257.4,17.4   M257.4,0C116.3,0,2,114.3,2,255.4s114.3,255.4,255.4,255.4s255.4-114.3,255.4-255.4S398.4,0,257.4,0L257.4,0z" class="st0"/>
<g>
	<path d="M463.6,248.1h16.9c-1.8-56.5-24.7-107.8-61-146.1l-11.9,11.9C442.2,150.6,461.9,197.8,463.6,248.1z" class="st0"/>
	<path d="M264.1,32.2v16.9c50.2,1.6,97.2,21,133.9,55.3l12-11.9C371.6,56.5,320.5,33.9,264.1,32.2z" class="st0"/>
	<path d="M250.6,49.1V32.2c-56.4,1.7-107.5,24.2-145.9,60.2l11.9,11.9C153.4,70.2,200.5,50.7,250.6,49.1z" class="st0"/>
	<path d="M34.3,248.1h16.9c1.7-50.3,21.4-97.5,56-134.2l-12-11.9C58.9,140.3,36.1,191.5,34.3,248.1z" class="st0"/>
	<path d="M264.1,461.7v16.9c56.8-1.7,108.2-24.6,146.7-61l-11.9-11.9C362.1,440.3,314.7,460,264.1,461.7z" class="st0"/>
	<path d="M480.6,261.6h-16.9c-1.5,50.4-20.9,97.7-55.3,134.5l11.9,11.9C456.4,369.5,479,318.2,480.6,261.6z" class="st0"/>
	<path d="M51.1,261.6H34.2c1.5,56.6,24.1,107.9,60.2,146.4l11.9-11.9C72,359.2,52.6,312,51.1,261.6z" class="st0"/>
	<path d="M250.6,478.5v-16.9c-50.5-1.6-97.9-21.3-134.7-56l-11.9,12C142.5,454,193.9,476.9,250.6,478.5z" class="st0"/>
</g>
<path d="M257.4,87.6c-92.7,0-167.8,75.1-167.8,167.8s75.1,167.8,167.8,167.8s167.8-75.1,167.8-167.8  S350.1,87.6,257.4,87.6z M160.2,339.2l97.2-83.8l97.2,83.8H160.2z M257.4,255.4l-97.2-83.8h194.4L257.4,255.4z" class="st0"/>
<g>
	<path d="M619.1,208.9h59l14.9,59l14.9-59h45.9l14.9,59l14.9-59h59l-43,125.9h-52.7l-16.3-56.4l-16,56.4h-52.7   L619.1,208.9z" class="st0"/>
	<path d="M907.8,326.7c-15.1-8-27.1-19.3-35.8-33.7c-8.7-14.4-13.1-31-13.1-49.7c0-18.7,4.4-35.3,13.1-49.8   c8.7-14.5,20.7-25.8,35.8-33.8c15.1-8,32-12.1,50.7-12.1c18.5,0,35.4,4,50.5,12.1c15.1,8,27.1,19.3,35.8,33.8   c8.7,14.5,13.1,31.1,13.1,49.8c0,18.7-4.4,35.3-13.1,49.7c-8.7,14.4-20.7,25.7-35.8,33.7c-15.1,8-32,12.1-50.5,12.1   C939.9,338.7,923,334.7,907.8,326.7z M984.5,270.3c6.8-6.6,10.2-15.6,10.2-27c0-11.4-3.4-20.4-10.2-27c-6.8-6.6-15.5-10-26-10   c-10.7,0-19.4,3.3-26.2,10c-6.8,6.6-10.2,15.6-10.2,27c0,11.4,3.5,20.4,10.4,27c6.9,6.6,15.6,10,26.1,10S977.7,276.9,984.5,270.3z" class="st0"/>
	<path d="M1112.5,242.2l-64.8-90.7h70.8l29.4,41.2l29.4-41.2h71.1l-65,90.7l66.4,92.6h-71.1l-30.7-43l-30.7,43h-71.1   L1112.5,242.2z" class="st0"/>
	<path d="M1262.8,151.5h135.8v52.2h-73.7v16h52.2v46.9h-52.2v16h73.7v52.2h-135.8V151.5z" class="st0"/>
	<path d="M1411.8,151.5h54.8l54.5,85.2v-85.2h59.5v183.3h-54.8l-54.5-85.5v85.5h-59.5V151.5z" class="st0"/>
</g>
</svg>